<svg xmlns="http://www.w3.org/2000/svg" viewBox="0 0 248.11 72"><defs><style>.cls-1{fill:#f33;}.cls-2{fill:#fff;}</style></defs><title>logo_noski</title><g id="Layer_2" data-name="Layer 2"><g id="Layer_1-2" data-name="Layer 1"><rect class="cls-1" width="248.11" height="72"/><path class="cls-2" d="M33.76,23.76h5.09L44,32.82l1.8,4.26.15,0s-.57-3.66-.6-3.66V23.76h5.34V45H45.24l-4.8-8.37-1.86-4.26-.15,0,.69,4.11V45H33.76Z"/><path class="cls-2" d="M53.52,30.75c0-4.89,4.38-7.29,8.79-7.29s8.82,2.43,8.82,7.29V38c0,4.86-4.38,7.29-8.79,7.29S53.52,42.87,53.52,38ZM58.89,38c0,1.56,1.74,2.31,3.45,2.31s3.42-.78,3.42-2.31V30.75c0-1.65-1.77-2.4-3.51-2.4s-3.36.84-3.36,2.4Z"/><path class="cls-2" d="M76.35,38.28c2.13,2.58,6.81,2.7,7,.42.06-1.2-1.89-1.89-3.63-2.13-3.42-.54-6.54-2.7-6.54-6.75s3.78-6.36,7.68-6.36a8.73,8.73,0,0,1,7.26,3.39l-3.51,2.7c-2.22-2.37-6-2.28-6.12.18.06,1,1.17,1.62,2.82,2,3.78.69,7.56,2,7.32,7.23-.18,4.11-4.5,6.36-8.4,6.36A9.31,9.31,0,0,1,73,41.46Z"/><path class="cls-2" d="M102.06,23.76h6.69L100.35,34l8.37,11h-6.81l-5.43-7.59-.18.24V45H90.9V23.76h5.4v7.86Z"/><path class="cls-2" d="M115.47,45H110.1V23.76h5.37Z"/><path class="cls-2" d="M118.32,30.75c0-4.89,4.38-7.29,8.79-7.29s8.82,2.43,8.82,7.29V38c0,4.86-4.38,7.29-8.79,7.29s-8.82-2.43-8.82-7.29ZM123.69,38c0,1.56,1.74,2.31,3.45,2.31s3.42-.78,3.42-2.31V30.75c0-1.65-1.77-2.4-3.51-2.4s-3.36.84-3.36,2.4Z"/><path class="cls-2" d="M138.78,23.76h8.49a7.32,7.32,0,0,1,7.77,7.5,7.34,7.34,0,0,1-7.74,7.53h-3.15V45h-5.37ZM147.27,34c3.24,0,3.24-5.28,0-5.25h-3.12V34Z"/><path class="cls-2" d="M167.13,28.83V45H161.7V28.83h-5.64v-5.1h16.71v5.1Z"/><path class="cls-2" d="M174.18,30.75c0-4.89,4.38-7.29,8.79-7.29s8.82,2.43,8.82,7.29V38c0,4.86-4.38,7.29-8.79,7.29s-8.82-2.43-8.82-7.29ZM179.55,38c0,1.56,1.74,2.31,3.45,2.31s3.42-.78,3.42-2.31V30.75c0-1.65-1.77-2.4-3.51-2.4s-3.36.84-3.36,2.4Z"/><path class="cls-2" d="M194.64,23.76H200l4.47,10.38L209,23.76h5.37V45H209l0-6.12.33-4.29-.18,0-2.79,7.29h-3.69l-2.85-7.29-.15,0,.36,4.29V45h-5.37Z"/></g></g></svg>